<?xml version="1.0" standalone="no"?>
<!DOCTYPE svg PUBLIC "-//W3C//DTD SVG 20010904//EN"
 "http://www.w3.org/TR/2001/REC-SVG-20010904/DTD/svg10.dtd">
<svg version="1.0" xmlns="http://www.w3.org/2000/svg"
 width="900.000000pt" height="626.000000pt" viewBox="0 0 900.000000 626.000000"
 preserveAspectRatio="xMidYMid meet">
<metadata>
Created by potrace 1.16, written by Peter Selinger 2001-2019
</metadata>
<g transform="translate(0.000000,626.000000) scale(0.100000,-0.100000)"
fill="#000000" stroke="none">
<path d="M5670 6253 c-153 -27 -302 -80 -455 -162 -102 -55 -113 -62 -216
-145 -226 -180 -385 -425 -469 -722 -27 -92 -32 -133 -37 -256 l-6 -148 69 0
c409 1 835 297 1049 730 82 166 145 423 145 590 0 122 -4 126 -80 113z"/>
<path d="M5477 4735 c-139 -20 -316 -73 -552 -165 -207 -82 -278 -102 -370
-107 -103 -5 -146 7 -475 132 -96 36 -229 80 -295 98 -112 29 -131 31 -280 30
-137 0 -177 -4 -280 -28 -291 -66 -538 -203 -754 -416 -61 -59 -182 -213 -229
-289 -29 -47 -109 -211 -133 -273 -60 -151 -95 -281 -131 -487 -18 -101 -17
-644 0 -755 46 -282 91 -480 153 -675 35 -109 121 -340 142 -385 8 -16 32 -68
53 -115 80 -175 223 -419 344 -590 303 -424 512 -614 756 -685 77 -23 101 -26
179 -21 134 8 310 57 470 131 73 33 199 75 291 96 78 17 131 22 254 23 211 0
309 -24 633 -158 255 -106 523 -108 715 -5 151 80 336 256 487 464 230 316
392 596 495 856 23 57 47 118 55 134 12 28 35 103 35 116 0 3 -26 19 -57 34
-32 16 -69 36 -83 45 -14 9 -45 30 -70 46 -88 57 -156 113 -236 196 -210 215
-319 435 -375 761 -7 43 -9 132 -7 240 7 231 43 378 140 572 87 172 294 409
454 521 78 54 78 55 29 113 -11 13 -36 43 -56 66 -173 204 -417 354 -708 434
-185 51 -429 70 -594 46z"/>
</g>
</svg>
