<?xml version="1.0" standalone="no"?>
<!DOCTYPE svg PUBLIC "-//W3C//DTD SVG 20010904//EN"
 "http://www.w3.org/TR/2001/REC-SVG-20010904/DTD/svg10.dtd">
<svg version="1.0" xmlns="http://www.w3.org/2000/svg"
 width="760.000000pt" height="428.000000pt" viewBox="0 0 760.000000 428.000000"
 preserveAspectRatio="xMidYMid meet">
<metadata>
Created by potrace 1.16, written by Peter Selinger 2001-2019
</metadata>
<g transform="translate(0.000000,428.000000) scale(0.100000,-0.100000)"
fill="#000000" stroke="none">
<path d="M2585 3350 c-19 -21 -17 -23 143 -183 149 -149 167 -163 219 -180 32
-10 65 -21 73 -24 8 -3 -77 88 -190 201 -113 113 -210 206 -216 206 -6 0 -19
-9 -29 -20z"/>
<path d="M4780 3165 l-204 -204 67 22 c61 21 77 33 189 143 68 66 141 139 162
162 39 41 39 42 21 62 -10 11 -21 20 -24 20 -3 0 -98 -92 -211 -205z"/>
<path d="M3521 3016 l-274 -274 -57 57 c-71 69 -145 114 -242 148 -66 24 -90
27 -265 31 l-193 4 0 -291 0 -291 -100 0 -100 0 0 -260 0 -260 100 0 100 0 0
-290 0 -290 161 0 c270 0 400 45 545 188 l51 50 274 -274 c151 -151 278 -274
284 -274 5 0 132 122 282 272 l271 271 68 -62 c80 -73 198 -135 299 -156 45
-9 129 -15 233 -15 l162 0 0 290 0 290 100 0 100 0 0 260 0 260 -100 0 -100 0
0 290 0 290 -162 0 c-103 0 -189 -6 -233 -15 -98 -20 -221 -85 -300 -157 -36
-33 -68 -59 -70 -57 -2 2 -125 124 -273 272 -148 147 -274 267 -278 267 -5 0
-132 -123 -283 -274z m259 -171 c0 -318 0 -325 20 -325 20 0 20 7 20 325 0
179 3 325 8 325 4 0 239 -232 522 -515 l515 -515 -515 -515 c-283 -283 -518
-515 -522 -515 -5 0 -8 146 -8 325 0 318 0 325 -20 325 -20 0 -20 -7 -20 -332
l0 -333 -522 522 -523 523 515 515 c283 283 518 515 522 515 5 0 8 -146 8
-325z m-933 60 c43 -8 110 -31 151 -50 70 -35 192 -135 192 -159 0 -6 -123
-134 -272 -283 l-273 -273 273 -273 c149 -149 272 -277 272 -283 0 -24 -122
-124 -193 -159 -91 -45 -210 -67 -344 -63 l-98 3 -3 765 c-1 421 0 771 3 778
6 17 193 16 292 -3z m2203 -766 l0 -782 -142 6 c-91 3 -163 11 -198 22 -88 27
-189 85 -248 143 l-55 53 84 86 c46 48 171 174 278 280 l195 194 -275 275
c-151 151 -273 280 -271 287 4 20 91 96 151 131 105 61 200 83 369 85 l112 1
0 -781z m200 0 l0 -189 -65 0 -65 0 0 189 0 190 43 3 c93 7 87 21 87 -193z
m-2760 1 l0 -190 -70 0 -70 0 0 190 0 190 70 0 70 0 0 -190z"/>
<path d="M3756 2425 c-46 -28 -53 -38 -58 -84 -3 -32 0 -37 50 -67 l54 -32 54
31 c55 32 59 39 48 96 -5 26 -17 37 -55 57 -27 13 -50 24 -51 24 -2 0 -21 -11
-42 -25z"/>
<path d="M3566 2386 c-25 -24 -52 -59 -61 -77 -17 -31 -17 -33 6 -50 23 -17
25 -16 69 9 67 38 68 40 76 88 7 46 -5 74 -32 74 -8 0 -34 -20 -58 -44z"/>
<path d="M3953 2419 c-11 -11 -10 -32 2 -94 3 -12 27 -32 59 -49 49 -27 58
-28 80 -17 l25 14 -19 36 c-20 41 -102 121 -123 121 -7 0 -18 -5 -24 -11z"/>
<path d="M3613 2238 l-53 -30 0 -68 0 -68 55 -31 56 -32 54 33 55 33 0 66 0
66 -52 29 c-29 16 -55 30 -58 31 -3 1 -29 -12 -57 -29z"/>
<path d="M3883 2239 l-53 -31 0 -68 0 -69 54 -30 54 -31 56 32 56 33 0 65 0
65 -52 30 c-29 17 -55 31 -58 32 -3 2 -29 -11 -57 -28z"/>
<path d="M3511 2021 c-23 -17 -23 -18 -6 -50 21 -41 100 -121 119 -121 27 0
39 28 32 74 -6 38 -13 49 -44 67 -20 13 -46 28 -57 35 -17 11 -24 10 -44 -5z"/>
<path d="M3749 2006 c-52 -31 -54 -33 -50 -72 4 -49 3 -49 56 -79 l44 -26 49
25 c39 20 51 31 56 57 11 57 7 64 -48 96 l-54 31 -53 -32z"/>
<path d="M4015 2005 c-22 -14 -44 -26 -49 -28 -5 -2 -12 -25 -16 -52 -8 -53 0
-75 29 -75 20 0 103 84 124 126 14 28 14 31 -4 42 -26 17 -38 15 -84 -13z"/>
<path d="M2953 1296 c-58 -19 -74 -33 -225 -183 l-162 -163 21 -20 c12 -11 25
-20 28 -20 4 0 99 92 213 205 114 113 202 204 197 204 -6 -1 -38 -11 -72 -23z"/>
<path d="M4783 1113 l207 -208 22 23 23 22 -163 163 c-156 156 -166 164 -230
185 l-67 22 208 -207z"/>
</g>
</svg>
