<?xml version="1.0" encoding="UTF-8" standalone="no"?>
<svg
   version="1.0"
   width="1024.000000pt"
   height="1024.000000pt"
   viewBox="0 0 1024.000000 1024.000000"
   preserveAspectRatio="xMidYMid meet"
   id="svg29"
   sodipodi:docname="Lapices.svg"
   inkscape:version="1.3.2 (091e20e, 2023-11-25, custom)"
   xmlns:inkscape="http://www.inkscape.org/namespaces/inkscape"
   xmlns:sodipodi="http://sodipodi.sourceforge.net/DTD/sodipodi-0.dtd"
   xmlns="http://www.w3.org/2000/svg"
   xmlns:svg="http://www.w3.org/2000/svg">
  <defs
     id="defs29" />
  <sodipodi:namedview
     id="namedview29"
     pagecolor="#ffffff"
     bordercolor="#000000"
     borderopacity="0.25"
     inkscape:showpageshadow="2"
     inkscape:pageopacity="0.0"
     inkscape:pagecheckerboard="0"
     inkscape:deskcolor="#d1d1d1"
     inkscape:document-units="pt"
     inkscape:zoom="0.54125977"
     inkscape:cx="509.92152"
     inkscape:cy="872.96346"
     inkscape:window-width="1920"
     inkscape:window-height="974"
     inkscape:window-x="-11"
     inkscape:window-y="-11"
     inkscape:window-maximized="1"
     inkscape:current-layer="svg29" />
  <metadata
     id="metadata1">
Created by potrace 1.16, written by Peter Selinger 2001-2019
</metadata>
  <g
     transform="matrix(0.1,0,0,-0.1,-2.7713126,1036.4709)"
     fill="#000000"
     stroke="none"
     id="g29"
     inkscape:label="Cruz De Lapices">
    <g
       id="g30"
       inkscape:label="Lapiz Inferior"
       transform="translate(110.8525,152.422)">
      <path
         d="m 3622.5779,4970.004 c -175,-181 -245,-257 -245,-266 0,-5 -16,-18 -35,-30 -19,-11 -35,-27 -35,-36 0,-8 -6,-15 -14,-15 -7,0 -22,-12 -31,-27 -10,-15 -51,-61 -91,-102 -41,-41 -76,-83 -80,-93 -3,-10 -12,-18 -20,-18 -8,0 -20,-11 -26,-25 -6,-13 -19,-27 -30,-30 -10,-4 -18,-10 -18,-15 0,-5 -44,-54 -97,-109 -54,-54 -103,-105 -109,-113 -6,-7 -45,-45 -86,-83 -41,-39 -80,-80 -86,-92 -7,-12 -21,-25 -32,-28 -11,-3 -20,-11 -20,-16 0,-5 -27,-36 -60,-69 -35,-35 -58,-66 -54,-72 5,-7 3,-8 -5,-4 -13,8 -57,-36 -152,-151 -58,-69 -72,-78 -100,-62 -11,5 -30,7 -42,3 -72,-23 -217,-201 -217,-266 0,-17 -12,-30 -44,-47 -24,-14 -64,-49 -87,-79 -24,-30 -53,-62 -65,-71 -44,-34 -124,-135 -124,-155 0,-12 -15,-33 -35,-49 -19,-15 -46,-50 -60,-77 -20,-39 -163,-213 -210,-255 -6,-5 -24,-30 -41,-54 -28,-43 -29,-48 -29,-160 0,-109 2,-121 33,-191 18,-41 38,-79 45,-85 7,-5 18,-22 25,-36 19,-37 152,-174 262,-270 52,-45 103,-93 113,-106 10,-13 25,-23 32,-23 8,0 20,-8 27,-19 33,-46 219,-171 260,-173 12,-1 29,-6 35,-11 25,-19 176,-20 239,-3 55,16 67,25 172,134 63,64 125,134 138,155 13,20 32,37 42,37 30,0 89,43 143,105 29,33 65,69 81,80 16,11 46,47 68,80 52,77 116,152 206,240 39,39 94,98 122,132 45,55 50,67 45,97 -4,27 -2,35 13,40 11,3 75,63 144,134 301,307 400,412 400,422 0,5 3,10 8,10 4,0 23,16 42,36 19,19 57,56 84,82 27,26 54,53 60,61 6,7 27,30 46,52 19,21 53,58 75,83 22,25 46,46 53,46 6,0 12,4 12,10 0,5 18,29 40,52 148,160 176,191 184,208 4,10 18,23 30,29 11,7 31,27 44,46 12,19 26,35 31,35 4,0 47,43 95,95 l 87,95 -38,32 c -54,48 -159,153 -319,323 -227,242 -244,261 -244,273 0,20 -17,13 -52,-21 -112,-111 -179,-187 -173,-196 3,-6 0,-9 -8,-5 -8,3 -25,-10 -43,-33 -41,-54 -54,-69 -100,-116 -111,-114 -247,-268 -288,-326 -11,-17 -26,-31 -33,-31 -6,0 -24,-20 -40,-44 -15,-25 -36,-47 -46,-49 -10,-3 -17,-9 -16,-14 4,-21 -2,-33 -16,-33 -8,0 -15,-4 -15,-8 0,-4 -19,-28 -42,-53 -24,-25 -94,-101 -157,-170 -63,-68 -177,-186 -253,-261 -112,-111 -142,-135 -153,-125 -7,6 -36,30 -64,52 -28,22 -51,48 -51,57 0,10 -7,18 -17,18 -10,0 -46,32 -81,70 -35,39 -77,77 -93,85 -51,27 -39,49 99,191 151,155 250,264 257,281 2,7 11,13 19,13 8,0 21,9 29,19 13,20 165,185 247,270 25,25 119,125 210,221 91,96 175,184 188,196 12,12 22,26 22,32 0,6 10,16 21,23 12,6 35,27 53,47 17,20 70,78 117,128 47,51 93,107 101,125 16,32 15,33 -15,75 -18,24 -39,43 -47,44 -9,0 -60,-46 -115,-103 z m 698,-791 c -6,-11 -73,-96 -83,-106 -3,-3 -27,-32 -55,-65 -106,-128 -280,-320 -519,-575 -137,-146 -272,-294 -301,-330 -29,-36 -81,-93 -115,-128 -64,-65 -92,-75 -113,-41 -8,13 15,44 118,160 156,175 176,197 291,318 149,158 253,271 374,407 252,283 359,385 392,376 10,-2 15,-9 11,-16 z m -2039,-913 c 56,-53 143,-138 195,-188 51,-49 114,-114 140,-144 42,-49 301,-290 469,-434 37,-32 68,-62 70,-67 2,-5 -10,-23 -27,-42 -26,-29 -32,-31 -48,-20 -10,7 -30,20 -46,30 -15,9 -29,24 -32,32 -3,8 -22,26 -42,40 -21,14 -45,32 -54,40 -9,8 -52,47 -95,85 -106,95 -298,277 -359,341 -27,28 -77,75 -110,105 -149,131 -235,214 -235,227 0,15 57,92 68,92 3,0 51,-44 106,-97 z m -222,-145 c 125,-101 278,-244 673,-629 88,-86 177,-171 198,-189 58,-50 62,-64 29,-101 l -28,-31 -109,103 c -61,56 -183,173 -272,260 -89,86 -195,184 -235,218 -40,35 -107,95 -148,134 -42,40 -104,98 -140,129 l -64,57 19,40 c 10,23 22,41 27,41 5,0 27,-15 50,-32 z m -131,-193 c 13,-13 27,-25 31,-25 3,0 42,-35 86,-77 175,-171 202,-194 213,-187 7,4 9,3 6,-3 -6,-10 328,-338 476,-467 37,-33 74,-71 83,-84 15,-23 15,-26 -3,-50 -11,-14 -24,-27 -29,-29 -6,-2 -53,36 -106,84 -52,49 -115,106 -139,127 -54,48 -137,124 -249,230 -47,45 -115,108 -151,141 -189,174 -339,321 -339,333 0,8 10,26 23,42 22,27 22,27 48,9 15,-10 37,-30 50,-44 z m -120,-208 c 94,-79 326,-296 539,-504 74,-73 177,-172 229,-220 l 94,-89 -25,-29 -25,-28 -44,34 c -24,19 -50,42 -57,52 -7,9 -19,17 -27,17 -8,0 -49,33 -92,74 -43,40 -98,91 -122,112 -24,21 -62,57 -85,79 -22,22 -129,123 -236,225 -230,217 -290,278 -290,293 0,11 40,57 49,57 3,0 45,-33 92,-73 z m -168,-188 c 32,-31 38,-42 27,-46 -18,-7 -95,-84 -135,-137 -25,-33 -30,-48 -30,-95 0,-65 15,-105 65,-181 43,-65 52,-87 40,-95 -6,-4 -10,0 -10,7 0,10 -2,10 -9,-1 -13,-21 -48,4 -110,78 -53,65 -76,122 -86,218 -5,52 -2,69 16,105 23,47 156,188 177,188 7,0 32,-18 55,-41 z m 825,-778 c 12,-10 22,-22 22,-27 0,-5 -39,-48 -87,-95 -98,-95 -128,-109 -232,-109 -74,0 -155,35 -164,72 -9,31 -3,33 43,14 22,-9 68,-19 103,-22 55,-5 70,-3 113,19 58,29 143,103 163,141 8,14 15,26 16,26 1,0 12,-8 23,-19 z"
         id="path19" />
      <path
         d="m 3927.5779,4801.0043 c 0,-10 -6,-18 -13,-18 -12,0 -97,-80 -157,-149 -36,-42 -38,-60 -7,-89 46,-43 77,-28 165,81 87,106 87,106 47,152 -25,29 -34,35 -35,23 z"
         id="path21" />
      <path
         d="m 3571.5779,4408.0043 c -3,-8 -15,-17 -25,-20 -11,-4 -28,-24 -39,-44 l -19,-38 24,-23 c 17,-16 29,-20 47,-14 12,4 26,7 30,6 9,-2 78,76 78,88 0,6 -7,22 -16,35 -18,28 -71,35 -80,10 z"
         id="path23" />
      <path
         d="m 3300.5779,4081.0043 c -13,-6 -23,-15 -23,-20 0,-4 -18,-27 -40,-50 -22,-24 -43,-52 -46,-64 -3,-11 -18,-25 -35,-31 -16,-6 -36,-24 -46,-40 -9,-16 -28,-35 -43,-41 -15,-7 -33,-25 -41,-40 -8,-15 -20,-31 -26,-35 -27,-17 -13,-46 33,-73 43,-25 48,-26 59,-11 7,9 17,17 24,17 6,0 11,6 11,13 0,6 23,39 50,72 28,33 50,63 50,67 0,4 11,13 23,20 13,7 54,47 90,90 l 67,76 -35,31 c -39,34 -40,34 -72,19 z"
         id="path24" />
      <path
         d="m 2775.5779,3501.0043 c -108,-116 -147,-192 -108,-216 17,-10 26,-10 51,3 35,19 219,204 219,221 0,21 -34,52 -64,59 -26,6 -35,-1 -98,-67 z"
         id="path25" />
    </g>
    <g
       id="g31"
       inkscape:label="Lapiz Superior"
       transform="translate(0,2.5e-4)">
      <path
         d="m 8487,8860 c -20,-11 -39,-20 -42,-20 -3,0 -32,-13 -65,-30 -33,-16 -108,-50 -167,-74 -59,-24 -148,-62 -198,-84 -49,-21 -155,-63 -235,-92 -201,-73 -223,-81 -242,-91 -9,-4 -54,-22 -100,-40 -45,-17 -87,-35 -93,-39 -5,-3 -32,-15 -60,-25 -27,-10 -54,-22 -60,-26 -5,-5 -16,-9 -25,-9 -9,0 -33,-9 -55,-20 -22,-11 -43,-20 -48,-20 -7,0 -52,-19 -133,-57 -18,-8 -69,-27 -115,-43 -57,-19 -89,-36 -99,-52 -8,-13 -20,-27 -27,-31 -7,-4 -13,-14 -13,-21 0,-7 -15,-26 -32,-42 -18,-16 -52,-50 -75,-74 -23,-25 -48,-50 -55,-57 -40,-36 -137,-142 -152,-165 -10,-16 -25,-28 -32,-28 -8,0 -14,-4 -14,-9 0,-8 -88,-104 -252,-274 -38,-38 -68,-73 -68,-78 0,-4 -13,-17 -30,-29 -16,-12 -30,-27 -30,-34 0,-7 -11,-18 -24,-24 -13,-6 -27,-20 -31,-31 -3,-12 -11,-21 -16,-21 -17,0 -129,-124 -129,-143 0,-10 -5,-15 -10,-12 -12,8 -149,-133 -150,-153 0,-7 -4,-11 -10,-7 -5,3 -42,-29 -82,-72 -40,-42 -88,-91 -105,-109 -18,-17 -33,-34 -33,-37 0,-3 -41,-47 -90,-99 -133,-137 -140,-145 -140,-154 1,-5 22,-33 49,-62 l 48,-54 54,58 c 30,32 70,75 89,95 19,21 40,44 47,51 7,7 64,65 126,128 62,63 177,182 255,263 124,130 141,151 131,168 -9,18 -8,19 9,8 17,-11 33,2 153,126 74,76 171,176 217,223 45,46 142,150 215,230 72,81 145,157 160,171 31,26 107,134 107,150 0,18 19,12 31,-10 6,-12 20,-53 30,-91 25,-91 72,-184 116,-230 l 35,-36 -72,-79 c -41,-43 -81,-85 -90,-93 -10,-8 -21,-22 -26,-31 -8,-16 -102,-123 -166,-191 -16,-16 -28,-32 -28,-36 0,-5 -13,-21 -28,-38 -43,-45 -132,-143 -187,-208 -52,-60 -77,-89 -149,-166 -86,-94 -163,-186 -169,-202 -3,-10 -12,-18 -19,-18 -12,0 -98,-87 -168,-171 -19,-23 -83,-92 -142,-152 -59,-60 -105,-114 -101,-120 3,-6 1,-7 -6,-3 -7,5 -32,-14 -64,-48 l -53,-55 95,-99 c 292,-302 443,-462 473,-499 18,-23 37,-42 41,-42 15,-1 97,71 97,85 0,8 5,14 11,14 17,0 94,83 91,98 -2,9 3,12 15,8 15,-5 23,2 36,29 9,19 22,35 29,35 10,0 108,98 108,108 0,2 11,13 25,24 22,17 24,23 13,37 -12,14 -11,14 4,3 18,-14 23,-11 80,54 9,10 37,39 62,64 26,25 61,62 79,83 17,21 114,122 214,225 101,103 183,193 183,200 0,6 5,12 10,12 16,0 75,56 445,430 88,89 181,178 207,198 40,30 52,48 74,106 14,39 39,101 55,137 16,36 29,69 29,74 0,4 15,44 34,89 105,252 139,337 196,496 53,147 122,322 163,410 19,41 42,94 50,117 9,23 25,61 36,85 93,206 102,237 72,267 -26,26 -46,26 -94,1 z m -257,-273 c 0,-12 -87,-86 -234,-197 -43,-33 -66,-38 -66,-15 0,51 69,114 161,148 25,10 65,30 90,46 53,35 49,34 49,18 z m -453,-209 c -3,-13 -9,-78 -12,-146 -8,-139 0,-174 46,-197 38,-20 65,-19 135,6 32,11 75,25 94,31 19,6 52,20 72,31 45,26 55,19 32,-24 -9,-18 -29,-69 -45,-114 -27,-80 -62,-169 -99,-255 -11,-25 -47,-112 -80,-195 -33,-82 -65,-158 -70,-167 -6,-10 -10,-22 -10,-27 0,-5 -7,-24 -15,-44 -14,-35 -15,-35 -54,-25 -45,11 -45,6 5,118 18,41 48,113 68,160 19,47 55,134 80,194 66,155 102,274 87,289 -8,8 -11,8 -11,-2 0,-8 -7,-11 -20,-8 -26,7 -60,-29 -84,-90 -11,-26 -27,-59 -36,-73 -9,-14 -20,-38 -24,-55 -4,-16 -13,-37 -20,-45 -7,-8 -37,-76 -66,-150 -29,-74 -59,-144 -66,-155 -7,-11 -25,-50 -39,-87 l -27,-68 h -44 c -24,0 -44,2 -44,5 0,3 7,22 16,43 25,57 114,352 120,392 6,52 -38,63 -145,36 -90,-23 -315,-58 -352,-54 -33,3 -36,6 -125,188 l -91,185 26,8 c 14,4 42,12 61,18 45,13 132,48 295,117 72,30 155,65 185,78 30,12 98,41 150,63 52,22 99,41 104,41 4,0 6,-10 3,-22 z M 6605,6503 c 9,-26 -34,-80 -203,-260 -87,-92 -183,-195 -213,-228 -30,-33 -84,-87 -120,-120 -36,-33 -73,-72 -83,-87 -21,-34 -62,-47 -83,-26 -17,18 -4,36 128,173 42,44 109,116 150,160 205,224 392,413 404,409 8,-3 16,-13 20,-21 z"
         id="path1" />
      <path
         d="m 6760,7711 c 0,-5 -9,-12 -19,-16 -11,-3 -54,-45 -96,-93 -88,-99 -288,-312 -420,-447 -49,-50 -107,-109 -127,-130 -21,-22 -51,-51 -68,-64 -17,-13 -38,-34 -47,-47 -14,-22 -14,-26 0,-47 9,-13 30,-30 48,-37 31,-13 32,-13 87,46 30,32 128,133 216,224 89,91 179,187 201,214 22,27 104,115 183,195 l 143,146 -37,33 c -37,31 -64,41 -64,23 z"
         id="path12"
         transform="translate(0,2.5e-4)" />
      <path
         d="m 5800,6693 c -15,-6 -64,-55 -205,-209 -44,-48 -108,-115 -142,-150 -35,-34 -63,-69 -63,-77 0,-15 54,-67 70,-67 5,0 51,44 102,98 51,53 148,151 215,217 68,66 123,127 123,136 0,37 -58,67 -100,52 z"
         id="path15"
         transform="translate(0,2.5e-4)" />
    </g>
    <g
       id="g32"
       inkscape:label="Lapiz Entero"
       transform="translate(0,2.5e-4)">
      <path
         d="m 1524,8862 c -29,-20 -18,-81 35,-197 31,-68 79,-186 117,-285 58,-156 101,-270 134,-360 69,-189 113,-300 157,-400 72,-166 137,-328 168,-417 25,-75 32,-86 84,-126 31,-25 156,-144 278,-266 122,-122 226,-221 231,-221 4,0 16,-16 25,-35 10,-21 26,-37 42,-41 14,-3 25,-12 25,-19 0,-7 28,-42 63,-76 34,-35 74,-78 89,-97 15,-18 29,-32 31,-30 2,2 21,-17 41,-40 20,-24 36,-41 36,-37 0,4 19,-17 41,-45 30,-38 44,-49 49,-39 6,9 11,4 16,-17 8,-35 23,-56 35,-49 4,3 16,-6 26,-20 35,-50 133,-146 143,-140 6,3 10,1 10,-5 0,-17 51,-80 60,-75 5,3 23,-15 41,-41 22,-32 34,-42 39,-34 6,9 12,4 23,-16 22,-43 108,-126 123,-120 9,4 14,-2 14,-17 0,-13 17,-38 40,-60 22,-20 40,-41 40,-46 0,-5 16,-18 35,-30 19,-11 35,-27 35,-36 0,-8 7,-15 15,-15 7,0 18,-7 23,-16 8,-15 149,-167 268,-291 34,-34 67,-63 73,-63 6,0 11,-6 11,-13 0,-7 37,-51 83,-98 116,-121 142,-152 140,-161 -2,-4 1,-7 5,-5 5,1 51,-43 103,-98 52,-55 169,-176 261,-270 92,-93 215,-221 275,-283 246,-257 357,-367 367,-364 6,2 8,1 4,-3 -4,-4 18,-32 48,-63 29,-30 54,-58 54,-62 0,-4 9,-15 20,-25 11,-10 20,-14 20,-10 0,5 11,-6 24,-24 13,-18 58,-67 99,-109 152,-156 177,-183 177,-192 0,-6 8,-10 18,-10 10,0 25,-13 33,-30 8,-16 52,-64 99,-107 48,-43 124,-118 170,-167 47,-49 151,-155 231,-236 129,-131 145,-151 142,-176 -5,-31 9,-54 84,-138 23,-26 46,-45 52,-42 13,9 241,-256 241,-281 0,-5 31,-35 69,-68 37,-33 78,-74 90,-91 12,-17 36,-48 55,-68 29,-33 36,-37 54,-27 18,9 28,1 94,-74 119,-139 211,-230 248,-249 47,-24 173,-32 241,-16 135,32 230,94 459,299 245,220 353,335 388,415 42,95 48,206 17,313 -22,74 -39,97 -162,217 -57,56 -103,109 -103,119 0,10 -26,46 -58,80 -32,34 -78,89 -102,122 -52,71 -248,273 -271,280 -9,3 -22,26 -30,53 -10,39 -29,63 -106,139 -92,91 -137,119 -153,93 -11,-19 -42,-4 -67,32 -12,18 -46,58 -75,89 -29,30 -73,79 -98,107 -57,66 -121,132 -146,153 -10,9 -48,48 -84,88 -36,40 -71,78 -78,84 -7,7 -20,19 -28,27 -217,221 -351,360 -349,360 8,0 -84,89 -102,99 -13,6 -23,16 -23,22 0,14 -80,93 -102,102 -10,3 -18,12 -18,20 0,7 -13,25 -28,40 -29,28 -49,36 -36,15 4,-7 3,-8 -5,-4 -6,4 -9,11 -6,15 4,8 -154,172 -242,251 -21,19 -49,49 -61,66 -12,17 -35,37 -51,44 -17,7 -29,16 -28,20 2,8 -201,218 -355,367 -41,40 -89,89 -107,110 -50,58 -233,253 -305,324 -35,35 -70,70 -78,78 -55,57 -120,125 -158,167 -161,179 -442,476 -741,786 -46,47 -158,164 -249,259 -91,94 -209,216 -262,270 -54,55 -96,99 -94,99 2,0 -17,20 -42,45 -24,25 -48,45 -53,45 -4,0 -10,8 -14,19 -3,10 -20,32 -38,48 -40,38 -198,204 -252,265 -34,39 -54,50 -135,78 -101,35 -304,116 -436,173 -44,19 -228,93 -410,165 -333,133 -502,202 -697,286 -111,47 -124,51 -143,38 z m 921,-519 c 251,-108 535,-226 564,-235 19,-5 45,-17 58,-25 13,-8 23,-12 23,-7 0,4 3,5 6,1 3,-3 -3,-19 -14,-35 -12,-16 -28,-67 -37,-118 -20,-106 -37,-149 -72,-186 -22,-23 -35,-28 -77,-28 -86,0 -228,21 -286,42 -98,35 -126,41 -153,34 -20,-5 -27,-13 -27,-30 0,-30 62,-286 94,-391 14,-44 21,-84 17,-88 -5,-5 -21,-7 -37,-5 -24,2 -35,14 -61,63 -18,33 -49,103 -69,155 -34,89 -124,298 -181,420 -14,30 -39,72 -55,93 l -30,38 28,-5 c 106,-17 102,-18 142,18 l 37,34 4,151 c 4,175 -11,163 126,104 z m -417,-269 c 74,-28 88,-40 50,-46 -16,-2 -22,-9 -21,-23 4,-43 59,-182 178,-451 69,-154 125,-285 125,-291 0,-6 -11,-14 -24,-17 -13,-3 -31,-9 -40,-12 -10,-4 -16,-1 -16,10 0,8 -16,48 -35,89 -19,41 -35,78 -35,83 0,5 -30,77 -66,159 -36,83 -74,173 -84,200 -26,71 -49,126 -64,155 -7,14 -19,43 -26,65 -7,22 -22,58 -32,79 -23,45 -31,45 90,0 z m 1291,-156 c 23,-28 124,-136 225,-239 100,-103 198,-205 216,-226 18,-21 112,-120 209,-220 97,-100 212,-221 256,-269 102,-109 96,-103 141,-145 21,-20 111,-115 199,-210 88,-96 194,-208 235,-250 41,-41 103,-105 137,-142 34,-37 66,-67 71,-67 5,0 15,-12 23,-26 8,-15 52,-66 99,-113 47,-47 129,-131 183,-186 53,-55 102,-106 109,-113 7,-7 187,-187 401,-401 213,-214 387,-385 387,-379 0,6 6,5 15,-2 8,-7 15,-19 15,-26 0,-7 12,-21 28,-31 15,-10 31,-23 35,-30 5,-8 12,-11 18,-8 5,3 6,0 4,-7 -7,-17 600,-634 619,-630 8,1 18,-3 22,-9 5,-9 2,-10 -9,-6 -33,13 -16,-12 61,-84 42,-41 77,-76 77,-79 1,-3 21,-25 45,-50 25,-25 74,-77 110,-116 36,-39 119,-126 184,-193 l 119,-122 -64,-66 c -35,-36 -75,-76 -89,-87 -13,-12 -64,-60 -112,-108 -77,-78 -118,-105 -118,-80 0,4 -30,39 -68,77 -37,39 -92,99 -122,134 -30,35 -82,94 -116,130 -171,186 -213,232 -278,301 -39,41 -114,122 -166,180 -165,182 -174,191 -186,186 -8,-3 -11,1 -8,8 5,13 -55,79 -306,336 -41,43 -122,127 -180,187 -399,415 -527,549 -620,644 -111,113 -310,323 -470,492 -52,56 -111,118 -130,137 -19,20 -89,95 -155,166 -66,71 -140,150 -166,177 -25,26 -45,47 -43,47 2,0 -4,8 -13,18 -103,108 -159,170 -220,243 -73,86 -275,313 -362,404 -26,28 -76,84 -111,125 -36,41 -90,102 -121,135 -171,182 -237,257 -249,280 -12,23 -11,28 14,53 14,16 49,82 76,146 54,130 74,166 93,166 8,0 32,-23 56,-52 z m 313,-1520 c 74,-73 208,-212 298,-308 90,-96 252,-267 360,-380 109,-113 224,-236 257,-275 33,-38 145,-155 248,-260 103,-104 201,-206 218,-225 37,-43 495,-517 632,-655 212,-214 396,-406 523,-547 73,-81 137,-150 142,-153 5,-3 69,-72 142,-153 73,-80 144,-158 158,-172 39,-38 158,-177 177,-206 14,-22 14,-27 2,-35 -28,-18 -57,-9 -89,29 -18,20 -58,64 -89,97 -31,33 -95,103 -141,155 -47,52 -92,102 -100,110 -8,8 -76,80 -150,160 -208,224 -425,452 -625,656 -60,62 -145,150 -188,196 -44,45 -165,171 -270,278 -106,107 -221,227 -257,265 -36,39 -138,146 -227,238 -90,93 -163,172 -163,177 0,5 -57,66 -128,137 -70,70 -152,155 -181,188 -78,86 -153,167 -347,370 -93,99 -190,202 -215,230 -24,27 -60,65 -79,85 -64,64 -81,90 -69,111 5,10 14,19 19,19 5,0 69,-60 142,-132 z M 7807,3366 c -5,-12 -102,-103 -337,-316 -51,-47 -139,-130 -194,-185 -88,-88 -401,-386 -417,-396 -3,-2 -20,13 -38,33 l -33,38 140,142 c 77,79 185,188 239,244 54,56 141,139 194,185 187,164 344,303 349,309 3,3 16,13 30,21 25,16 25,16 48,-23 13,-21 22,-45 19,-52 z m 136,-138 c 24,-32 18,-44 -55,-115 -29,-28 -79,-77 -110,-107 -32,-31 -58,-61 -58,-67 0,-6 -5,-7 -10,-4 -6,4 -23,-8 -38,-25 -15,-17 -70,-70 -122,-117 -109,-99 -280,-260 -426,-404 -56,-54 -106,-99 -112,-99 -6,0 -22,15 -36,32 l -25,33 117,114 c 64,62 192,186 283,275 305,297 547,518 563,513 6,-2 18,-15 29,-29 z m 162,-165 c 13,-16 25,-33 25,-39 0,-5 -61,-68 -136,-140 -75,-71 -205,-195 -288,-276 -82,-82 -153,-148 -157,-148 -4,0 -27,-19 -51,-42 -125,-121 -261,-247 -298,-277 l -41,-33 -25,23 c -13,12 -24,27 -24,33 0,22 726,736 791,777 14,9 59,46 100,82 40,37 75,67 77,67 2,0 14,-12 27,-27 z m 151,-204 29,-31 -195,-190 c -107,-104 -212,-203 -232,-221 -20,-18 -81,-72 -136,-122 -135,-123 -372,-329 -382,-333 -4,-2 -21,8 -36,22 l -29,25 70,66 c 39,37 120,115 180,173 99,96 301,286 485,458 36,33 94,88 130,122 36,34 70,62 76,62 5,0 23,-14 40,-31 z m 191,-256 c 41,-43 81,-91 89,-106 21,-38 30,-184 15,-229 -11,-35 -97,-150 -130,-175 -20,-15 -68,-17 -76,-2 -4,6 1,20 12,32 61,70 103,167 103,239 0,51 -1,52 -77,128 -43,42 -89,83 -102,91 l -23,15 42,42 c 23,23 49,42 57,42 8,0 49,-35 90,-77 z m -895,-755 c 32,-42 125,-117 179,-144 39,-20 45,-20 107,-7 37,7 75,16 85,19 12,4 17,0 17,-16 0,-28 -108,-80 -168,-80 -77,0 -122,30 -226,150 -59,68 -63,79 -44,98 18,18 23,15 50,-20 z"
         id="path2" />
      <path
         d="m 3259,7681 c -16,-16 -29,-33 -29,-38 0,-5 48,-54 106,-108 93,-86 108,-97 125,-87 25,16 39,15 39,-2 0,-7 -10,-16 -21,-19 -20,-5 -20,-8 16,-51 20,-25 45,-48 56,-51 10,-4 19,-11 19,-16 0,-6 21,-33 48,-61 26,-28 55,-59 65,-70 10,-10 22,-16 27,-13 5,3 8,0 5,-7 -3,-7 30,-50 73,-95 235,-250 223,-241 280,-213 23,11 42,27 42,34 0,8 -73,89 -162,180 -90,91 -197,202 -238,247 -41,44 -102,109 -135,143 -33,34 -72,79 -87,99 -34,43 -122,128 -151,144 -33,18 -46,16 -78,-16 z"
         id="path3" />
      <path
         d="m 4183,6685 c -41,-41 -39,-46 36,-110 57,-49 66,-53 75,-30 6,16 36,21 36,6 0,-5 -7,-16 -15,-24 -12,-13 -7,-23 45,-83 49,-56 115,-105 139,-104 3,1 19,11 35,24 l 29,24 -21,35 c -12,19 -52,63 -89,99 -38,35 -94,94 -126,131 -70,79 -92,84 -144,32 z"
         id="path4" />
      <path
         d="m 4606,6269 c -33,-39 -33,-59 2,-92 43,-41 71,-47 109,-24 18,10 36,23 39,28 13,21 -75,118 -108,119 -9,0 -28,-14 -42,-31 z"
         id="path5" />
      <path
         d="m 5628,5219 c -41,-31 -36,-59 22,-113 27,-25 55,-46 62,-46 23,0 78,39 78,56 0,25 -108,126 -132,124 -2,0 -15,-10 -30,-21 z"
         id="path6" />
      <path
         d="m 5946,4878 c -29,-41 -20,-75 37,-136 74,-80 87,-90 130,-102 32,-9 43,-8 63,5 37,24 31,58 -18,97 -24,18 -54,46 -67,62 -14,15 -31,34 -38,41 -7,8 -13,18 -13,23 0,10 -44,32 -65,32 -8,0 -21,-10 -29,-22 z"
         id="path7" />
      <path
         d="m 6269,4519 c -16,-16 -20,-28 -15,-52 7,-32 67,-93 102,-103 22,-6 77,17 89,36 9,15 -24,70 -50,82 -14,6 -25,15 -25,19 0,9 -53,39 -70,39 -5,0 -19,-9 -31,-21 z"
         id="path8" />
      <path
         d="m 6583,4194 c -7,-3 -22,-21 -34,-40 l -21,-34 64,-66 c 34,-36 74,-68 88,-71 17,-3 26,-12 27,-25 3,-34 125,-174 143,-163 5,3 10,1 10,-5 0,-15 49,-4 69,15 23,23 -3,66 -99,165 -48,49 -85,91 -83,93 2,2 -16,22 -39,43 -24,21 -41,41 -39,44 5,5 -58,51 -68,49 -3,0 -11,-3 -18,-5 z"
         id="path9" />
      <path
         d="m 7036,3649 c -42,-50 -36,-65 77,-182 96,-100 114,-112 159,-108 9,1 19,-3 23,-9 3,-5 14,-10 23,-10 16,1 16,2 0,14 -22,16 -23,26 -3,26 12,0 12,5 5,26 -19,49 -137,184 -162,184 -6,0 -9,3 -5,6 8,8 -34,54 -65,70 -25,13 -28,12 -52,-17 z"
         id="path10" />
    </g>
  </g>
</svg>
